<svg id="Layer_1" data-name="Layer 1" xmlns="http://www.w3.org/2000/svg" viewBox="0 0 151 69"><defs><style>.cls-1{fill:#fff}.cls-2{fill:#6dc07b}</style></defs><g id="Euraknos_2.Components_-_-desktop_Footer" data-name="Euraknos/2.Components/-ï¸-desktop/Footer"><path id="Fill-1" class="cls-1" d="M.4 49.3v19.1h12.8v-3.5h-9v-4.1h7v-3.6h-7v-4.3h9v-3.6H.4z"/><path id="Fill-2" class="cls-1" d="M28.6 61.1V49.5h3.9v11.7c0 3.2-2 7.6-7.5 7.6s-7.5-4.4-7.5-7.6V49.5h3.8v11.7c0 1.1.8 4.1 3.7 4.1s3.6-3 3.6-4.2"/><path id="Fill-4" class="cls-1" d="M47.7 55.7a2.61 2.61 0 00-2.8-2.7h-3.5v5.4H45a2.68 2.68 0 002.7-2.7zm-6.3 12.9h-3.8V49.5h7.2c5.2 0 6.8 3.7 6.8 6.2a6 6 0 01-3.7 5.7l3.4 7.2h-4.2L44 62h-2.5l-.1 6.6z"/><path id="Fill-6" class="cls-1" d="M61.4 60.9h3.1L63 57.2zm1.4-11.7h.3L72 68.6h-4.3l-1.9-4.5h-5.7l-1.8 4.5H54z"/><path id="Fill-8" class="cls-1" d="M75.5 68.6V49.5h3.8v7.6l6.7-7.6h4.2l.1.2-7.9 9 8.5 9.7v.2h-4.4l-7.2-8.1v8.1h-3.8z"/><path id="Fill-10" class="cls-1" d="M95 49.3l11.5 11V49.5h3.8v19.1l-.2.1-11.5-11.1v11h-3.9V49.4l.3-.1z"/><path id="Fill-12" class="cls-1" d="M129.6 59c0-1.6-.7-6.3-5.5-6.3s-5.5 4.8-5.5 6.3.7 6.3 5.5 6.3 5.5-4.7 5.5-6.3m3.9 0c0 4.1-2.2 9.9-9.4 9.9s-9.4-5.8-9.4-9.9 2.2-9.9 9.4-9.9 9.4 5.9 9.4 9.9"/><path id="Fill-15" class="cls-1" d="M144.1 57c3 1 6.7 2.2 6.5 6.3-.2 3.1-3 5.5-6.9 5.5a15 15 0 01-7.3-1.9l1.7-3.2a12.42 12.42 0 005.5 1.6c1.7 0 2.8-.7 3-1.8.2-1.4-1.2-2.1-3-2.7-2.9-.9-6.7-1.8-6.7-6 0-3.5 2.6-5.6 6.2-5.6a16.72 16.72 0 016.9 1.7l-1.4 3.3a15.5 15.5 0 00-5.3-1.4c-1.3 0-2.5.4-2.6 1.8 0 1.2 1.6 1.7 3.4 2.4"/><path id="Fill-17" class="cls-2" d="M72.9 34.5l-3.6-3.8h2.6l3.6 3.8zm-3.5 0a3 3 0 01-2.5-1.2l-2.3-2.6h2.3l3.6 3.8zm-2.5-8.3a3.34 3.34 0 012.5-1.2h1.2l-3.4 3.6c-.1.1-.1.2-.2.3h-2.4zm5 2.8h-2.6l3.7-3.9h2.6zm12.6 6.4a.9.9 0 00-.9-.9H78l-2-2.2h7.7a1.65 1.65 0 001.5.9 1.69 1.69 0 001.7-1.7v-.3a1.73 1.73 0 00-1.7-1.5 1.6 1.6 0 00-1.4.8h-9.4l-.7-.8.9-1h11.5a.9.9 0 100-1.8h-10l1.9-2h3.3a1.86 1.86 0 001.5.9 1.7 1.7 0 100-3.4 1.76 1.76 0 00-1.5.8H69.4a4.65 4.65 0 00-3.8 1.8l-3.4 4h-4.3a1.86 1.86 0 00-1.5-.9 1.69 1.69 0 00-1.7 1.7 1.73 1.73 0 001.7 1.6 1.9 1.9 0 001.5-.8h4.4l3.3 3.8a5.27 5.27 0 003.8 1.8h14.2a.77.77 0 00.9-.8z"/><path id="Fill-19" class="cls-2" d="M78.1 2l3.6 3.8h-2.6L75.5 2zm3.5 0a3 3 0 012.5 1.2l2.3 2.6h-2.3L80.5 2zm2.5 8.3a3.34 3.34 0 01-2.5 1.2h-1.2l3.4-3.6c.1-.1.1-.2.2-.3h2.4zm-5-2.7h2.6L78 11.5h-2.6zM66.5 1.2a.82.82 0 00.9.8H73l2 2.2h-7.6a1.61 1.61 0 00-1.5-.9A1.69 1.69 0 0064.2 5v.3a1.9 1.9 0 001.7 1.5 1.6 1.6 0 001.4-.8h9.4l.7.8-.9 1H65.1a.9.9 0 000 1.8h9.8l-1.9 2h-3.3a1.64 1.64 0 00-1.5-1 1.7 1.7 0 000 3.4 1.76 1.76 0 001.5-.8h11.9a4.65 4.65 0 003.8-1.8l3.3-3.9H93a1.86 1.86 0 001.5.9 1.69 1.69 0 001.7-1.7A1.67 1.67 0 0094.6 5a1.9 1.9 0 00-1.5.8h-4.4L85.4 2A5.27 5.27 0 0081.6.2H67.4a1.06 1.06 0 00-.9 1z"/><path id="Fill-22" class="cls-2" d="M95.5 23.3l-3.6-3.8h2.6l3.6 3.8zm-3.5 0a3 3 0 01-2.5-1.2l-2.3-2.6h2.3l3.6 3.8zM89.5 15a3.34 3.34 0 012.5-1.2h1.1l-3.4 3.6c-.1.1-.1.2-.2.3h-2.4zm5 2.8h-2.6l3.7-3.9h2.5zm12.5 6.4a.9.9 0 00-.9-.9h-5.6l-2-2.2h7.6a1.65 1.65 0 001.5.9 1.69 1.69 0 001.7-1.7V20a1.73 1.73 0 00-1.7-1.5 1.6 1.6 0 00-1.4.8h-9.4l-.7-.7.9-1h11.5a.9.9 0 000-1.8h-9.8l1.9-2h3.3a1.86 1.86 0 001.5.9 1.7 1.7 0 000-3.4 1.76 1.76 0 00-1.5.8H92a4.65 4.65 0 00-3.8 1.8l-3.3 3.9h-4.3a1.86 1.86 0 00-1.5-.9 1.69 1.69 0 00-1.7 1.7 1.73 1.73 0 001.7 1.6 1.9 1.9 0 001.5-.8H85l3.3 3.8a5.27 5.27 0 003.8 1.8h14a.77.77 0 00.9-.8z"/><path id="Fill-24" class="cls-2" d="M55.5 14.1l3.6 3.8h-2.6l-3.6-3.8zm3.5 0a3 3 0 012.5 1.2l2.3 2.6h-2.3l-3.6-3.8zm2.5 8.3a3.34 3.34 0 01-2.5 1.2h-1.2l3.4-3.6c.1-.1.1-.2.2-.3h2.4zm-5-2.7h2.6l-3.7 3.9h-2.6zm-12.6-6.5a.9.9 0 00.9.9h5.6l2 2.2h-7.7a1.65 1.65 0 00-1.5-.9 1.69 1.69 0 00-1.7 1.7v.3a1.73 1.73 0 001.7 1.5 1.6 1.6 0 001.4-.8H54l.7.8-.9 1H42.5a.9.9 0 100 1.8h9.8l-1.9 2h-3.3a1.86 1.86 0 00-1.5-.9 1.69 1.69 0 00-1.7 1.7 1.74 1.74 0 003.2.9H59a4.65 4.65 0 003.8-1.8l3.3-3.9h4.3a1.86 1.86 0 001.5.9 1.69 1.69 0 001.7-1.7 1.73 1.73 0 00-1.7-1.6 1.9 1.9 0 00-1.5.8h-4.3l-3.3-3.8a5.27 5.27 0 00-3.8-1.8H44.8a.67.67 0 00-.9.7z"/></g></svg>