<svg version="1.1" id="Layer_1" xmlns="http://www.w3.org/2000/svg" x="0" y="0" viewBox="0 0 151 69" xml:space="preserve"><path d="M.4 68.4h12.8v-3.5h-9v-4.1h7v-3.6h-7v-4.3h9v-3.6H.4zm28.2-7.3c0 1.1-.7 4.1-3.7 4.1-2.9 0-3.7-3-3.7-4.1V49.5h-3.8v11.7c0 3.2 2 7.6 7.5 7.6 5.6 0 7.5-4.4 7.5-7.6V49.5h-3.9l.1 11.6zm23-5.4c0-2.5-1.6-6.2-6.8-6.2h-7.2v19.1h3.8V62h2.5l3.1 6.6h4.2l-3.4-7.2c2.2-1 3.8-3 3.8-5.7zM45 58.4h-3.6V53h3.5c2.3 0 2.8 1.7 2.8 2.7 0 .8-.5 2.6-2.7 2.7zm17.9-9.2L54 68.6h4.3l1.8-4.5h5.7l1.9 4.5H72l-8.9-19.4h-.2zm-1.4 11.7l1.5-3.7 1.5 3.7h-3zm28.8-11.2v-.2h-4.2l-6.7 7.6v-7.6h-3.9v19.1h3.9v-8.1l7.2 8.1h4.3l.1-.2-8.6-9.7zm16.2 10.6L95 49.3l-.2.1v19.2h3.8v-11l11.5 11.1.3-.1V49.5h-3.9zm17.6-11.2c-7.2 0-9.4 5.9-9.4 9.9 0 4.1 2.2 9.9 9.4 9.9s9.4-5.8 9.4-9.9c0-4-2.2-9.9-9.4-9.9zm0 16.2c-4.9 0-5.5-4.8-5.5-6.3 0-1.6.7-6.3 5.5-6.3s5.5 4.7 5.5 6.3c0 1.5-.7 6.3-5.5 6.3zm20.1-8.3c-1.9-.7-3.4-1.2-3.5-2.5.1-1.3 1.2-1.8 2.6-1.8 1.9 0 4.3 1 5.3 1.4l1.4-3.3c-3.2-1.5-5.8-1.7-6.9-1.7-3.6 0-6.2 2.1-6.2 5.6 0 4.2 3.8 5.1 6.7 6 1.8.6 3.3 1.3 3 2.7-.2 1.1-1.4 1.8-3 1.8-1.8 0-3.7-.7-5.5-1.6l-1.7 3.2c2.3 1.3 4.5 1.9 7.3 1.9 4 0 6.7-2.4 6.9-5.5.3-4-3.5-5.2-6.4-6.2zM81.3 25.1c.3.5.9.9 1.5.9 1 0 1.7-.8 1.7-1.7 0-1-.8-1.7-1.7-1.7-.6 0-1.2.3-1.5.8H69.4c-1.5 0-2.9.6-3.8 1.8L62.3 29H58c-.3-.5-.9-.9-1.5-.9-1 0-1.7.8-1.7 1.7.1.9.8 1.6 1.7 1.6.6 0 1.1-.3 1.5-.8h4.4l3.3 3.8c1 1.1 2.4 1.8 3.8 1.8h14.2c.5 0 .9-.4.9-.9s-.4-.9-.9-.9H78l-2-2.2h7.7c.3.6.9.9 1.5.9 1 0 1.7-.8 1.7-1.7v-.3c-.1-.8-.8-1.5-1.7-1.5-.6 0-1.1.3-1.4.8h-9.4l-.7-.8.9-1h11.5c.5 0 .9-.4.9-.9s-.4-.9-.9-.9h-9.8l1.9-2h3.1v.3zm-14.4 1.1c.6-.7 1.5-1.2 2.5-1.2h1.2l-3.4 3.6c-.1.1-.1.2-.2.3h-2.4l2.3-2.7zm2.5 8.3c-1 0-1.9-.4-2.5-1.2l-2.3-2.6H67l3.6 3.8h-1.2zm6.2 0H73l-3.6-3.8H72l3.6 3.8zM71.9 29h-2.6l3.7-3.9h2.6L71.9 29zM65.1 7.7c-.5 0-.9.4-.9.9s.4.9.9.9h9.8l-1.9 2h-3.3c-.3-.5-.9-.9-1.5-.9-1 0-1.7.8-1.7 1.7 0 1 .8 1.7 1.7 1.7.6 0 1.2-.3 1.5-.8h11.9c1.5 0 2.9-.6 3.8-1.8l3.3-3.9H93c.3.5.9.9 1.5.9 1 0 1.7-.8 1.7-1.7 0-.9-.7-1.7-1.6-1.7-.6 0-1.1.3-1.5.8h-4.4L85.4 2C84.4.9 83 .2 81.6.2H67.4c-.5 0-.9.4-.9.9s.4.9.9.9H73l2 2.2h-7.7c-.3-.6-.9-.9-1.5-.9-1 0-1.7.8-1.7 1.7v.3c.1.8.8 1.5 1.7 1.5.6 0 1.1-.3 1.4-.8h9.4l.7.8-.9 1-11.3-.1zm19 2.6c-.6.7-1.5 1.2-2.5 1.2h-1.2l3.4-3.6c.1-.1.1-.2.2-.3h2.4l-2.3 2.7zM81.6 2c1 0 1.9.4 2.5 1.2l2.3 2.6h-2.3L80.5 2h1.1zm-6.1 0h2.6l3.6 3.8H79L75.5 2zm3.6 5.6h2.6L78 11.5h-2.6l3.7-3.9zm28 16.6c0-.5-.4-.9-.9-.9h-5.6l-2-2.2h7.7c.3.6.9.9 1.5.9 1 0 1.7-.8 1.7-1.7V20c-.1-.8-.8-1.5-1.7-1.5-.6 0-1.1.3-1.4.8H97l-.7-.8.9-1h11.5c.5 0 .9-.4.9-.9s-.4-.9-.9-.9h-9.8l1.9-2h3.3c.3.5.9.9 1.5.9 1 0 1.7-.8 1.7-1.7 0-1-.8-1.7-1.7-1.7-.6 0-1.2.3-1.5.8H92c-1.5 0-2.9.6-3.8 1.8l-3.3 3.9h-4.3c-.3-.5-.9-.9-1.5-.9-1 0-1.7.8-1.7 1.7.1.9.8 1.6 1.7 1.6.6 0 1.1-.3 1.5-.8H85l3.3 3.8c1 1.1 2.4 1.8 3.8 1.8h14.2c.4.2.8-.2.8-.7zm-8.9-10.3l-3.7 3.9h-2.6l3.7-3.9h2.6zM89.5 15c.6-.7 1.5-1.2 2.5-1.2h1.2l-3.4 3.6c-.1.1-.1.2-.2.3h-2.4l2.3-2.7zm2.5 8.3c-1 0-1.9-.4-2.5-1.2l-2.3-2.6h2.3l3.6 3.8H92zm3.5 0l-3.6-3.8h2.6l3.6 3.8h-2.6zm-53-3.5c-.5 0-.9.4-.9.9s.4.9.9.9h9.8l-1.9 2h-3.3c-.3-.5-.9-.9-1.5-.9-1 0-1.7.8-1.7 1.7s.8 1.7 1.7 1.7c.6 0 1.2-.3 1.5-.8H59c1.5 0 2.9-.6 3.8-1.8l3.3-3.9h4.3c.3.5.9.9 1.5.9 1 0 1.7-.8 1.7-1.7-.1-.9-.8-1.6-1.7-1.6-.6 0-1.1.3-1.5.8H66l-3.3-3.8c-1-1.1-2.4-1.8-3.8-1.8H44.8c-.5 0-.9.4-.9.9s.4.9.9.9h5.6l2 2.2h-7.7c-.3-.6-.9-.9-1.5-.9-1 0-1.7.8-1.7 1.7v.3c.1.8.8 1.5 1.7 1.5.6 0 1.1-.3 1.4-.8H54l.7.8-.9 1H42.5v-.2zm19 2.6c-.6.7-1.5 1.2-2.5 1.2h-1.2l3.4-3.6c.1-.1.1-.2.2-.3h2.4l-2.3 2.7zM59 14.1c1 0 1.9.4 2.5 1.2l2.3 2.6h-2.3l-3.6-3.8H59zm-6.1 0h2.6l3.6 3.8h-2.6l-3.6-3.8zm3.6 5.6h2.6l-3.7 3.9h-2.6l3.7-3.9z" fill="#fff"/></svg>