<?xml version="1.0" encoding="utf-8"?>
<!-- Generator: Adobe Illustrator 18.0.0, SVG Export Plug-In . SVG Version: 6.00 Build 0)  -->
<!DOCTYPE svg PUBLIC "-//W3C//DTD SVG 1.1//EN" "http://www.w3.org/Graphics/SVG/1.1/DTD/svg11.dtd">
<svg version="1.1" id="Layer_1" xmlns="http://www.w3.org/2000/svg" xmlns:xlink="http://www.w3.org/1999/xlink" x="0px" y="0px"
	 viewBox="0 0 595.3 841.9" enable-background="new 0 0 595.3 841.9" xml:space="preserve">
<path fill="#FFFFFF" d="M320.5,383.9c1.2,2,3.5,3.5,5.9,3.5c3.9,0,6.7-3.2,6.7-6.7c0-3.9-3.2-6.7-6.7-6.7c-2.4,0-4.7,1.2-5.9,3.2
	h-46.9c-5.9,0-11.4,2.4-15,7.1l-13,15h-17c-1.2-2-3.5-3.5-5.9-3.5c-3.9,0-6.7,3.2-6.7,6.7c0.4,3.5,3.2,6.3,6.7,6.3
	c2.4,0,4.3-1.2,5.9-3.2H246l13,15c3.9,4.3,9.5,7.1,15,7.1h56c2,0,3.5-1.6,3.5-3.5s-1.6-3.5-3.5-3.5h-22.5l-7.9-8.7H330
	c1.2,2.4,3.5,3.5,5.9,3.5c3.9,0,6.7-3.2,6.7-6.7v-1.2c-0.4-3.2-3.2-5.9-6.7-5.9c-2.4,0-4.3,1.2-5.5,3.2h-37.1l-2.8-3.2l3.5-3.9h45.3
	c2,0,3.5-1.6,3.5-3.5s-1.6-3.5-3.5-3.5h-38.6l7.5-7.9h12.2L320.5,383.9L320.5,383.9z"/>
<path fill="#FFFFFF" d="M263.7,388.2c2.4-2.8,5.9-4.7,9.9-4.7h4.7l-13.4,14.2c-0.4,0.4-0.4,0.8-0.8,1.2h-9.5
	C254.7,398.9,263.7,388.2,263.7,388.2z"/>
<path fill="#FFFFFF" d="M273.6,420.9c-3.9,0-7.5-1.6-9.9-4.7l-9.1-10.2h9.5l14.2,15H273.6z"/>
<polygon fill="#FFFFFF" points="298,420.9 287.8,420.9 273.6,406 283.8,406 "/>
<polygon fill="#FFFFFF" points="283.4,399.3 273.2,399.3 287.8,383.9 298,383.9 "/>
<path fill="#FFFFFF" d="M256.6,315.3c-2,0-3.5,1.6-3.5,3.5c0,2,1.6,3.5,3.5,3.5h38.6l-7.5,7.9h-13c-1.2-2-3.5-3.5-5.9-3.5
	c-3.9,0-6.7,3.2-6.7,6.7c0,3.9,3.2,6.7,6.7,6.7c2.4,0,4.7-1.2,5.9-3.2h46.9c5.9,0,11.4-2.4,15-7.1l13-15.4h17c1.2,2,3.5,3.5,5.9,3.5
	c3.9,0,6.7-3.2,6.7-6.7s-2.8-6.7-6.3-6.7c-2.4,0-4.3,1.2-5.9,3.2h-17.3l-13-15c-3.9-4.3-9.5-7.1-15-7.1h-56c-2,0-3.5,1.6-3.5,3.5
	s1.6,3.5,3.5,3.5h22.1l7.9,8.7h-30.4c-1.2-2.4-3.5-3.5-5.9-3.5c-3.9,0-6.7,3.2-6.7,6.7v1.2c0.4,3.2,3.2,5.9,6.7,5.9
	c2.4,0,4.3-1.2,5.5-3.2H302l2.8,3.2l-3.5,3.9C301.2,315.7,256.6,315.3,256.6,315.3z"/>
<path fill="#FFFFFF" d="M331.5,325.5c-2.4,2.8-5.9,4.7-9.9,4.7H317l13.4-14.2c0.4-0.4,0.4-0.8,0.8-1.2h9.5L331.5,325.5z"/>
<path fill="#FFFFFF" d="M321.7,292.8c3.9,0,7.5,1.6,9.9,4.7l9.1,10.2h-9.1l-14.2-15H321.7z"/>
<polygon fill="#FFFFFF" points="297.6,292.8 307.9,292.8 322.1,307.8 311.4,307.8 "/>
<polygon fill="#FFFFFF" points="311.8,314.9 322.1,314.9 307.5,330.3 297.2,330.3 "/>
<path fill="#FFFFFF" d="M422.2,380.3c0-2-1.6-3.5-3.5-3.5h-22.1l-7.9-8.7h30.4c1.2,2.4,3.5,3.5,5.9,3.5c3.9,0,6.7-3.2,6.7-6.7v-1.2
	c-0.4-3.2-3.2-5.9-6.7-5.9c-2.4,0-4.3,1.2-5.5,3.2h-37.1l-2.8-3.2l3.5-3.9h45.3c2,0,3.5-1.6,3.5-3.5s-1.6-3.5-3.5-3.5h-38.6l7.5-7.9
	h13c1.2,2,3.5,3.5,5.9,3.5c3.9,0,6.7-3.2,6.7-6.7c0-3.9-3.2-6.7-6.7-6.7c-2.4,0-4.7,1.2-5.9,3.2h-47.7c-5.9,0-11.4,2.4-15,7.1
	l-13,15.4h-17c-1.2-2-3.5-3.5-5.9-3.5c-3.9,0-6.7,3.2-6.7,6.7c0.4,3.5,3.2,6.3,6.7,6.3c2.4,0,4.3-1.2,5.9-3.2h17.3l13,15
	c3.9,4.3,9.5,7.1,15,7.1h56C420.6,383.9,422.2,382.3,422.2,380.3L422.2,380.3z"/>
<polygon fill="#FFFFFF" points="387.1,339.7 372.5,355.1 362.3,355.1 376.9,339.7 "/>
<path fill="#FFFFFF" d="M352.8,344.1c2.4-2.8,5.9-4.7,9.9-4.7h4.7L354,353.5c-0.4,0.4-0.4,0.8-0.8,1.2h-9.5
	C343.8,354.7,352.8,344.1,352.8,344.1z"/>
<path fill="#FFFFFF" d="M362.7,376.8c-3.9,0-7.5-1.6-9.9-4.7l-9.1-10.2h9.1l14.2,15C367,376.8,362.7,376.8,362.7,376.8z"/>
<polygon fill="#FFFFFF" points="376.5,376.8 362.3,361.8 372.5,361.8 386.7,376.8 "/>
<path fill="#FFFFFF" d="M167.5,363c-2,0-3.5,1.6-3.5,3.5s1.6,3.5,3.5,3.5h38.6l-7.5,7.9h-13c-1.2-2-3.5-3.5-5.9-3.5
	c-3.9,0-6.7,3.2-6.7,6.7s3.2,6.7,6.7,6.7c2.4,0,4.7-1.2,5.9-3.2h46.9c5.9,0,11.4-2.4,15-7.1l13-15.4h17c1.2,2,3.5,3.5,5.9,3.5
	c3.9,0,6.7-3.2,6.7-6.7c-0.4-3.5-3.2-6.3-6.7-6.3c-2.4,0-4.3,1.2-5.9,3.2h-17.3l-13-15c-3.9-4.3-9.5-7.1-15-7.1h-55.6
	c-2,0-3.5,1.6-3.5,3.5s1.6,3.5,3.5,3.5h22.1l7.9,8.7h-30.4c-1.2-2.4-3.5-3.5-5.9-3.5c-3.9,0-6.7,3.2-6.7,6.7v1.2
	c0.4,3.2,3.2,5.9,6.7,5.9c2.4,0,4.3-1.2,5.5-3.2h37.1l2.8,3.2l-3.5,3.9h-44.5V363z"/>
<path fill="#FFFFFF" d="M242.4,373.2c-2.4,2.8-5.9,4.7-9.9,4.7h-4.7l13.4-14.2c0.4-0.4,0.4-0.8,0.8-1.2h9.5L242.4,373.2L242.4,373.2
	z"/>
<path fill="#FFFFFF" d="M232.6,340.5c3.9,0,7.5,1.6,9.9,4.7l9.1,10.2h-9.1l-14.2-15C228.3,340.5,232.6,340.5,232.6,340.5z"/>
<polygon fill="#FFFFFF" points="208.5,340.5 218.8,340.5 233,355.5 222.7,355.5 "/>
<polygon fill="#FFFFFF" points="222.7,362.6 233,362.6 218.4,378 208.2,378 "/>
</svg>
