<?xml version="1.0" encoding="utf-8"?>
<!-- Generator: Adobe Illustrator 18.0.0, SVG Export Plug-In . SVG Version: 6.00 Build 0)  -->
<!DOCTYPE svg PUBLIC "-//W3C//DTD SVG 1.1//EN" "http://www.w3.org/Graphics/SVG/1.1/DTD/svg11.dtd">
<svg version="1.1" id="Layer_1" xmlns="http://www.w3.org/2000/svg" xmlns:xlink="http://www.w3.org/1999/xlink" x="0px" y="0px"
	 viewBox="0 0 283.5 153.1" enable-background="new 0 0 283.5 153.1" xml:space="preserve">
<path fill="#FFFFFF" d="M181.2,123.2c-2.5,0-4.5,1.2-5.7,3.3H137l-2.9-3.3l3.7-4.1h47.1c2,0,3.7-1.6,3.7-3.7s-1.6-3.7-3.7-3.7h-40.1
	l7.8-8.2h12.7v1.2c1.2,2,3.7,3.7,6.1,3.7c4.1,0,7-3.3,7-7c0-4.1-3.3-7-7-7c-2.5,0-4.9,1.2-6.1,3.3h-48.7c-6.1,0-11.9,2.5-15.6,7.4
	l-13.5,15.6H69.9c-1.2-2-3.7-3.7-6.1-3.7c-4.1,0-7,3.3-7,7c0.4,3.7,3.3,6.6,7,6.6c2.5,0,4.5-1.2,6.1-3.3h18l13.5,15.6
	c4.1,4.5,9.8,7.4,15.6,7.4h58.1c2,0,3.7-1.6,3.7-3.7c0-2-1.6-3.7-3.7-3.7h-23.3l-8.2-9h31.5c1.2,2.5,3.7,3.7,6.1,3.7
	c4.1,0,7-3.3,7-7v-1.2C187.8,126.1,184.9,123.2,181.2,123.2z M141.9,104.8l-15.1,16h-10.6l15.1-16H141.9z M106.3,109.3
	c2.5-2.9,6.1-4.9,10.2-4.9h4.9l-13.9,14.7c-0.4,0.4-0.4,0.8-0.8,1.2h-9.8L106.3,109.3z M116.6,143.3c-4.1,0-7.8-1.6-10.2-4.9
	l-9.4-10.6h9.8l14.7,15.6H116.6z M131.3,143.3l-14.7-15.6h10.6l14.7,15.6H131.3z"/>
<path fill="#FFFFFF" d="M219.7,22.5c-2.5,0-4.5,1.2-6.1,3.3h-18l-13.5-15.6c-4.1-4.5-9.8-7.4-15.6-7.4h-58.1c-2,0-3.7,1.6-3.7,3.7
	s1.6,3.7,3.7,3.7h22.9l8.2,9H108c-1.2-2.5-3.7-3.7-6.1-3.7c-4.1,0-7,3.3-7,7v1.2c0.4,3.3,3.3,6.1,7,6.1c2.5,0,4.5-1.2,5.7-3.3H146
	l2.9,3.3l-3.7,4.1l-46.3-0.4c-2,0-3.7,1.6-3.7,3.7s1.6,3.7,3.7,3.7h40.1l-7.8,8.2h-13.5c-1.2-2-3.7-3.7-6.1-3.7c-4.1,0-7,3.3-7,7
	c0,4.1,3.3,7,7,7c2.5,0,4.9-1.2,6.1-3.3h48.7c6.1,0,11.9-2.5,15.6-7.4l13.5-16h17.6c1.2,2,3.7,3.7,6.1,3.7c4.1,0,7-3.3,7-7
	S223.4,22.5,219.7,22.5z M141.5,10.2h10.6l14.7,15.6h-11.1L141.5,10.2z M141.1,49.1l15.1-16h10.6l-15.1,16H141.1z M176.7,44.2
	c-2.5,2.9-6.1,4.9-10.2,4.9h-4.9l13.9-14.7c0.4-0.4,0.4-0.8,0.8-1.2h9.8L176.7,44.2z M176.7,25.8L162,10.2h4.5
	c4.1,0,7.8,1.6,10.2,4.9l9.4,10.6H176.7z"/>
<path fill="#FFFFFF" d="M273.8,77.8c-2.5,0-4.5,1.2-5.7,3.3h-38.5l-2.9-3.3l3.7-4.1h47.1c2,0,3.7-1.6,3.7-3.7s-1.6-3.7-3.7-3.7
	h-40.1l7.8-8.2h13.5c1.2,2,3.7,3.7,6.1,3.7c4.1,0,7-3.3,7-7c0-4.1-3.3-7-7-7c-2.5,0-4.9,1.2-6.1,3.3h-49.5c-6.1,0-11.9,2.5-15.6,7.4
	l-13.5,16h-17.6c-1.2-2-3.7-3.7-6.1-3.7c-4.1,0-7,3.3-7,7c0.4,3.7,3.3,6.6,7,6.6c2.5,0,4.5-1.2,6.1-3.3h18l13.5,15.6
	c4.1,4.5,9.8,7.4,15.6,7.4h58.1c1.6,0.8,3.3-0.8,3.3-2.9h0c0-2-1.6-3.7-3.7-3.7h-22.9l-8.2-9h31.5c1.2,2.5,3.7,3.7,6.1,3.7
	c4.1,0,7-3.3,7-7v-1.2C280.3,80.6,277.5,77.8,273.8,77.8z M234.5,58.9l-15.1,16h-10.6l15.1-16H234.5z M198.9,63.4
	c2.5-2.9,6.1-4.9,10.2-4.9h4.9l-13.9,14.7c-0.4,0.4-0.4,0.8-0.8,1.2h-9.8L198.9,63.4z M209.1,97.4c-4.1,0-7.8-1.6-10.2-4.9
	l-9.4-10.6h9.4l14.7,15.6C213.6,97.4,209.1,97.4,209.1,97.4z M223.4,97.4l-14.7-15.6h10.6l14.7,15.6H223.4z"/>
<path fill="#FFFFFF" d="M126.8,72.4c-2.5,0-4.5,1.2-6.1,3.3h-18L89.1,60.2c-4.1-4.5-9.8-7.4-15.6-7.4H15.8c-2,0-3.7,1.6-3.7,3.7
	s1.6,3.7,3.7,3.7h22.9l8.2,9H15.4c-1.2-2.5-3.7-3.7-6.1-3.7c-4.1,0-7,3.3-7,7v1.2c0.4,3.3,3.3,6.1,7,6.1c2.5,0,4.5-1.2,5.7-3.3h38.5
	l2.9,3.3l-3.7,4.1H6.4v-0.8c-2,0-3.7,1.6-3.7,3.7s1.6,3.7,3.7,3.7h40.1l-7.8,8.2H25.2c-1.2-2-3.7-3.7-6.1-3.7c-4.1,0-7,3.3-7,7
	s3.3,7,7,7c2.5,0,4.9-1.2,6.1-3.3H74c6.1,0,11.9-2.5,15.6-7.4l13.5-16h17.6c1.2,2,3.7,3.7,6.1,3.7c4.1,0,7-3.3,7-7
	C133.3,75.3,130.5,72.4,126.8,72.4z M49,59.7h10.6l14.7,15.6H63.7L49,59.7z M48.6,98.6l15.1-16h10.6l-15.1,16H48.6z M84.2,93.7
	c-2.5,2.9-6.1,4.9-10.2,4.9h-4.9L83,83.9c0.4-0.4,0.4-0.8,0.8-1.2h9.8L84.2,93.7z M84.2,75.3L69.5,59.7H74c4.1,0,7.8,1.6,10.2,4.9
	l9.4,10.6H84.2z"/>
</svg>
